<svg width="129" height="129" viewBox="0 0 129 129" fill="none" xmlns="http://www.w3.org/2000/svg">
<path d="M116.1 0H12.9C5.77553 0 0 5.77553 0 12.9V116.1C0 123.224 5.77553 129 12.9 129H116.1C123.224 129 129 123.224 129 116.1V12.9C129 5.77553 123.224 0 116.1 0Z" fill="#9B7161"/>
<path d="M87.1143 35.9905C86.132 35.4224 85.0178 35.1234 83.8836 35.1234C82.7495 35.1234 81.6353 35.4224 80.653 35.9905L51.5775 53.0131V38.3853C51.5775 36.6687 50.8968 35.0224 49.685 33.8086C48.4733 32.5948 46.8299 31.9128 45.1163 31.9128C43.4026 31.9128 41.7592 32.5948 40.5475 33.8086C39.3358 35.0224 38.655 36.6687 38.655 38.3853V90.1651C38.655 91.8817 39.3358 93.528 40.5475 94.7418C41.7592 95.9557 43.4026 96.6376 45.1163 96.6376C46.8299 96.6376 48.4733 95.9557 49.685 94.7418C50.8968 93.528 51.5775 91.8817 51.5775 90.1651V75.5373L80.653 92.4952C81.6324 93.0617 82.743 93.3607 83.8739 93.3624C85.0048 93.3641 86.1164 93.0685 87.0975 92.505C88.0786 91.9415 88.8948 91.13 89.4647 90.1515C90.0346 89.1729 90.3381 88.0617 90.3449 86.9289V41.6216C90.3494 40.481 90.053 39.3596 89.4857 38.3707C88.9184 37.3819 88.1003 36.5608 87.1143 35.9905Z" fill="#D5C6C2"/>
</svg>
