<svg width="130" height="130" viewBox="0 0 130 130" fill="none" xmlns="http://www.w3.org/2000/svg">
<path fill-rule="evenodd" clip-rule="evenodd" d="M9.45803 9.45803C-9.53674e-07 18.916 0 34.1384 0 64.5833C0 95.0279 -9.53674e-07 110.251 9.45803 119.708C18.916 129.167 34.1384 129.167 64.5833 129.167C95.0279 129.167 110.251 129.167 119.708 119.708C129.167 110.251 129.167 95.0279 129.167 64.5833C129.167 34.1384 129.167 18.916 119.708 9.45803C110.251 -9.53674e-07 95.0279 0 64.5833 0C34.1384 0 18.916 -9.53674e-07 9.45803 9.45803ZM22.3496 58.663C24.7569 37.4576 42.7804 20.9896 64.6453 20.9896C77.4457 20.9896 88.9325 26.6388 96.7297 35.563C98.4896 37.5776 98.2836 40.6375 96.2686 42.3976C94.2542 44.1578 91.1942 43.9515 89.4343 41.937C83.4003 35.0306 74.5356 30.6771 64.6453 30.6771C48.1285 30.6771 34.4644 42.8329 32.1194 58.663H34.4652C36.4249 58.663 38.1915 59.8442 38.9408 61.6551C39.6902 63.4654 39.2745 65.5495 37.8879 66.9342L30.3429 74.4691C28.4518 76.3575 25.3885 76.3575 23.4975 74.4691L15.9524 66.9342C14.5657 65.5495 14.1501 63.4654 14.8994 61.6551C15.6488 59.8442 17.4154 58.663 19.3751 58.663H22.3496ZM98.8241 54.6976C100.716 52.8091 103.779 52.8091 105.67 54.6976L113.215 62.2325C114.602 63.6172 115.017 65.7013 114.268 67.5115C113.519 69.3224 111.752 70.5037 109.792 70.5037H106.818C104.411 91.709 86.3867 108.177 64.522 108.177C51.7216 108.177 40.2351 102.528 32.4378 93.6039C30.6777 91.5889 30.8839 88.5289 32.8985 86.769C34.913 85.0091 37.9729 85.2151 39.7331 87.2295C45.7672 94.136 54.6317 98.4896 64.522 98.4896C81.0392 98.4896 94.7031 86.3337 97.0481 70.5037H94.7024C92.7423 70.5037 90.976 69.3224 90.2261 67.5115C89.477 65.7013 89.8929 63.6172 91.2795 62.2325L98.8241 54.6976Z" fill="#9B7161"/>
</svg>
